<!--?xml version="1.0" standalone="no"?-->
              <svg id="sw-js-blob-svg" viewBox="0 0 100 100" xmlns="http://www.w3.org/2000/svg" version="1.1">
                    <defs> 
                        <linearGradient id="sw-gradient" x1="0" x2="1" y1="1" y2="0">
                            <stop id="stop1" stop-color="rgba(248, 117, 55, 1)" offset="0%"></stop>
                            <stop id="stop2" stop-color="rgba(251, 168, 31, 1)" offset="100%"></stop>
                        </linearGradient>
                    </defs>
                <path fill="url(#sw-gradient)" d="M23.4,-28.6C29.4,-22.8,32.7,-14.6,33.1,-6.7C33.5,1.3,31,8.9,27.7,17.2C24.3,25.6,20.2,34.8,13.2,38.2C6.2,41.6,-3.6,39.2,-12.8,35.7C-22,32.1,-30.5,27.3,-35.7,19.9C-40.8,12.4,-42.6,2.3,-40.4,-6.7C-38.3,-15.6,-32.3,-23.5,-24.9,-29C-17.5,-34.5,-8.8,-37.7,0,-37.6C8.7,-37.6,17.4,-34.3,23.4,-28.6Z" width="100%" height="100%" transform="translate(50 50)" stroke-width="0" style="transition: all 0.3s ease 0s;"></path>
              </svg>